<svg width="260" height="260" viewBox="0 0 260 260" fill="none" xmlns="http://www.w3.org/2000/svg">
<g clip-path="url(#clip0_3394_146824)">
<path d="M212 0H48C21.4903 0 0 21.4903 0 48V212C0 238.51 21.4903 260 48 260H212C238.51 260 260 238.51 260 212V48C260 21.4903 238.51 0 212 0Z" fill="#192129"/>
<path d="M220 138.18L217.717 128.757L206.934 134.081L207.089 123.016L213.68 56.9143L205.841 53.5324L166.575 79.5418L153.049 74.333L146.867 60.3252L138.465 65.0311L129.931 53.3127L121.817 65.245L113.179 61.0479L111.252 74.3561L96.3348 76.9403L57.5801 48.9941L50.9494 58.8163L56.6888 115.535L52.3354 134.185L46.067 131.295L40 136.862L51.582 149.517L43.8703 150.095L42.237 156.397L52.6804 163.825L46.2453 166.23V172.353L55.6709 176.515L59.3456 182.961L69.375 184.429L68.2421 189.193L74.7693 194.98C75.862 194.847 80.2095 194.344 83.7808 194.269H84.0109L84.1833 194.425C94.7993 204.311 107.146 210.919 132.864 211.005H133.082C148.937 211.005 164.183 204.924 171.647 199.27C172.55 198.582 175.943 197.35 177.11 196.94L177.502 192.691H188.1L190.262 184.383L201.85 182.585L201.707 174.388H211.615L215.129 166.936L207.486 162.345L216.722 158.871L217.757 149.24L208.59 147.638L219.994 138.157L220 138.18ZM96.3348 84.6292C102.839 81.2126 108.831 79.2585 115.519 78.2468L116.348 67.3725L123.07 72.1361C125.02 72.0436 127.843 61.4179 129.977 61.4179C132.645 61.4179 134.762 70.477 137.188 70.633L143.002 66.9447L147.235 78.7614C153.969 80.0795 160.088 82.3977 166.489 86.1497C174.344 79.8771 199.677 66.4648 206.106 60.0015C204.398 68.8871 204.962 100.314 199.337 120.686C201.845 126.843 201.235 134.081 200.85 141.065C184.132 148.575 164.643 158.067 161.261 159.328C154.182 157.934 145.119 157.061 140.104 152.737C127.757 142.094 117.285 156.206 104.093 158.663C101.712 159.108 99.5092 159.53 97.5539 160.027C95.7539 159.212 93.3272 158.085 90.4748 156.749C90.4748 156.749 90.4633 156.749 90.4575 156.743C67.345 145.002 72.7163 123.403 83.5278 105.239C91.0038 92.6824 110.453 91.3238 110.453 91.3238C93.0569 86.9764 74.1712 97.9721 68.0006 120.108C64.1303 134.012 65.2517 141.724 66.8562 145.742C64.4869 144.655 62.1291 143.586 59.8287 142.556C59.7482 133.821 60.2657 122.692 63.6242 115.848C58.7015 95.6308 58.621 76.7958 57.166 57.556C63.9232 64.3489 89.0428 78.8365 96.3348 84.6408V84.6292ZM211.328 153.986C213.087 154.315 207.394 156.194 198.164 158.333C197.256 161.235 196.111 163.976 194.765 166.571C200.821 166.855 205.479 167.23 206.647 167.751C208.326 168.502 202.529 169.19 193.253 169.271C192.178 171.075 190.987 172.809 189.705 174.474C193.103 175.422 195.559 176.238 196.209 176.752C197.21 177.55 193.817 177.365 188.175 176.376C186.323 178.579 184.293 180.666 182.096 182.649C183.827 184.314 185.162 186.187 185.88 188.303C186.283 189.476 184.236 187.528 179.98 184.487C177.053 186.944 173.861 189.239 170.451 191.413C169.548 192.107 168.663 192.766 167.8 193.384C167.432 193.645 167.535 194.223 167.973 194.344L170.376 195.009L161.606 197.373C152.457 202.53 144.038 203.75 129.971 203.75C111.206 203.75 99.1353 200.813 90.0548 192.344C87.1794 190.413 84.4134 188.453 81.8083 186.418C77.5182 189.476 75.4593 191.448 75.8619 190.263C76.5808 188.164 77.8977 186.303 79.6114 184.649C77.1213 182.585 74.7922 180.429 72.6817 178.128C65.9935 179.302 61.83 179.562 62.9571 178.718C63.7162 178.151 66.7756 177.226 70.9392 176.151C69.6855 174.653 68.5182 173.098 67.4486 171.468C57.1086 171.514 50.3399 170.913 52.0594 170.144C53.3016 169.589 58.7993 169.161 65.8325 168.809C64.3603 166.196 63.1296 163.403 62.175 160.38C52.3354 158.2 46.228 156.275 48.0798 155.94C49.4082 155.703 54.6185 156.42 61.3814 157.559C60.7373 154.957 60.2888 152.188 60.0587 149.228C55.0325 146.066 50.6907 142.163 46.8146 137.053C46.4811 136.613 47.0275 136.024 47.4703 136.353C48.4249 137.064 49.4946 137.793 50.6562 138.539C53.3131 140.244 56.4588 142.03 59.846 143.817C62.4511 145.193 65.1942 146.569 67.9661 147.904C76.6843 152.107 85.6843 155.946 91.4696 158.287C93.7297 159.2 95.4951 159.888 96.5648 160.276C97.0766 160.461 97.4274 160.582 97.5999 160.628C99.4517 161.102 100.677 162.345 100.24 162.773C100.125 162.889 99.9002 162.941 99.5437 162.912C97.4159 162.397 95.3628 161.9 93.3673 161.403C92.3782 161.842 91.5213 162.351 90.8197 162.947C98.451 164.386 104.248 165.461 105.018 165.421C105.939 165.375 106.767 165.554 107.342 165.808C106.594 165.988 103.017 166.126 98.29 166.277H98.2843C95.2421 165.964 92.1712 165.589 89.129 165.172C88.9393 165.606 88.8013 166.074 88.715 166.577C86.3169 166.658 83.89 166.751 81.5782 166.86C81.0376 165.791 80.566 164.779 80.1635 163.825C76.92 163.293 73.7743 162.733 70.8012 162.16C71.5775 163.981 72.4115 165.716 73.3086 167.375C70.3814 167.635 68.2939 167.953 67.7016 168.352C67.5003 168.485 67.3852 168.612 67.3564 168.734C69.4497 168.635 71.6524 168.543 73.9067 168.462C76.6728 168.352 79.5023 168.26 82.2856 168.167C84.4479 168.098 86.5756 168.028 88.6171 167.965C97.5021 167.687 104.702 167.473 105.507 167.242C106.456 166.965 107.348 166.999 107.923 167.184C108.647 167.421 108.877 167.89 108.066 168.294C108.009 168.306 107.946 168.312 107.888 168.323C107.831 168.416 107.744 168.508 107.624 168.606C102.603 170.572 97.1341 172.312 91.7973 173.781C92.5047 174.318 93.3099 174.81 94.2185 175.255C92.3783 176.07 90.6242 176.937 89.1922 177.839C88.3641 176.902 87.5994 175.977 86.8863 175.07C84.3272 175.711 81.8428 176.284 79.5022 176.787C80.8421 178.463 82.2338 180.03 83.6658 181.487C84.6837 180.828 85.7591 180.227 86.8633 179.654C87.7661 179.186 88.6919 178.747 89.6235 178.336C91.6881 177.423 93.793 176.631 95.7943 175.954C96.8294 175.602 97.8415 175.284 98.8019 174.989C103.477 173.567 107.089 172.786 107.486 172.399C108.595 171.318 109.55 172.595 108.883 173.561C105.243 174.497 101.879 175.654 98.8019 176.92C103.121 178.059 108.567 178.562 114.657 178.446C129.465 178.163 128.781 175.405 128.798 173.463C128.827 169.942 124.031 170.352 122.058 169.312C120.425 168.45 116.077 165.947 114.507 162.079C113.754 160.23 115.215 158.703 117.452 157.322C122.484 154.206 134.336 152.795 142.744 157.796C145.05 159.166 143.434 163.207 142.209 164.727C138.632 169.156 133.307 170.942 132.709 171.3C132.001 171.728 132.323 174.064 132.404 175.578C132.484 177.087 143.583 178.313 154.291 178.03C157.955 177.931 161.233 176.897 163.907 175.388C160.565 173.954 156.868 172.647 152.831 171.613C152.164 170.641 153.118 169.37 154.228 170.445C154.625 170.832 158.231 171.613 162.9 173.029C163.889 173.33 164.93 173.659 165.994 174.023C168.887 175 171.975 176.214 174.862 177.7C173.304 176.081 170.296 174.515 167.098 173.127C167.627 172.665 168.111 172.185 168.548 171.694C163.659 170.254 158.679 168.56 154.09 166.658C153.975 166.56 153.895 166.462 153.843 166.369C153.785 166.363 153.728 166.352 153.67 166.34C152.865 165.936 153.089 165.461 153.82 165.23C154.395 165.045 155.286 165.011 156.229 165.288C157.006 165.513 163.36 165.67 171.325 165.855C178.623 166.028 187.278 166.23 194.225 166.548C194.173 166.496 194.11 166.444 194.035 166.398C192.511 165.375 181.303 164.889 171.17 164.56C171.055 164.138 170.871 163.744 170.629 163.392C168.145 163.733 165.649 164.045 163.171 164.311C158.524 164.166 155.045 164.028 154.372 163.849C154.924 163.6 155.718 163.426 156.592 163.467C157.265 163.502 161.888 162.629 168.191 161.392C167.311 160.941 166.282 160.565 165.132 160.235C164.171 160.472 163.188 160.715 162.187 160.952C161.831 160.981 161.606 160.929 161.491 160.813C161.233 160.565 161.555 160.027 162.245 159.53C162.722 159.183 163.372 158.865 164.125 158.674C165.799 158.247 185.409 150.436 200.769 142.452C204.576 140.475 208.119 138.487 211.063 136.596C212.231 135.845 213.306 135.11 214.261 134.399C214.704 134.07 215.307 134.706 214.916 135.105C210.126 139.961 205.479 143.776 200.453 146.939C200.217 149.344 199.843 151.662 199.343 153.888C193.052 154.749 184.173 157.645 183.615 157.894C183.04 158.148 182.459 158.426 182.004 158.697C187.887 157.559 193.891 156.414 198.946 155.541C201.344 155.119 203.524 154.766 205.376 154.5C208.395 154.061 210.534 153.853 211.31 153.997L211.328 153.986Z" fill="#E705FB"/>
<path d="M84.853 122.813C83.3233 138.376 89.1085 154.026 100.714 154.078C116.028 154.141 123.585 143.342 125.016 129.589C126.632 114.049 119.404 102.342 107.948 100.371C96.4983 98.3992 86.5437 105.591 84.853 122.813ZM114.849 122.605L110.059 126.906L115.424 130.895C114.694 133.659 113.043 135.705 110.956 136.052C107.804 136.572 104.854 133.023 104.36 128.132C103.865 123.241 106.016 118.853 109.167 118.333C111.456 117.957 113.641 119.732 114.855 122.611L114.849 122.605Z" fill="#E705FB"/>
<path d="M79.0072 160.728C78.5529 159.317 78.2712 158.12 78.0929 157.189C74.3549 155.999 70.9044 154.727 67.7012 153.293C68.2475 155.27 68.857 157.166 69.5299 158.987C72.6296 159.542 75.8385 160.138 79.0129 160.728H79.0072Z" fill="#E705FB"/>
<path d="M83.9443 170.931C81.0862 171.104 78.2913 171.231 75.6172 171.324C76.313 172.416 77.0261 173.474 77.7622 174.492C80.1603 173.925 82.6792 173.347 85.1808 172.781C84.7438 172.156 84.3296 171.538 83.9386 170.936L83.9443 170.931Z" fill="#E705FB"/>
<path d="M91.5147 180.354C89.4387 181.464 87.5581 182.58 85.8789 183.649C97.2252 194.084 110.291 198.154 117.296 198.264C105.564 192.5 97.3115 186.257 91.5147 180.354Z" fill="#E705FB"/>
<path d="M146.999 150.928C158.707 157.339 168.967 147.742 173.435 134.775C177.903 121.808 176.661 106.661 166.528 102.615C156.39 98.5675 142.007 105.077 137.533 118.044C133.064 131.012 137.355 145.655 146.993 150.928H146.999ZM146.216 124.901C147.303 122.508 149.264 121.033 151.318 121.351C154.141 121.779 156.073 125.427 155.625 129.485C155.182 133.55 152.531 136.492 149.707 136.064C147.833 135.781 146.355 134.081 145.705 131.786L150.512 128.474L146.216 124.907V124.901Z" fill="#E705FB"/>
<path d="M99.6107 169.52C96.1372 169.942 92.6119 170.288 89.127 170.566C89.3052 170.971 89.5179 171.358 89.7767 171.734C93.4572 170.907 96.8963 170.144 99.6164 169.52H99.6107Z" fill="#E705FB"/>
<path d="M170.096 169.571C170.326 169.184 170.522 168.796 170.694 168.415C167.531 168.155 164.317 167.825 161.125 167.426C163.569 168.028 166.703 168.762 170.096 169.571Z" fill="#E705FB"/>
<path d="M116.642 160.321H116.682C117.142 159.749 118.102 158.969 119.275 158.888C118.206 159.292 117.636 159.853 117.24 160.287C118.43 160.102 119.391 158.443 122.254 157.593C124.227 157.009 126.93 156.361 131.749 156.009C122.203 155.113 114.801 160.194 116.642 160.321Z" fill="#E705FB"/>
<path d="M75.1833 98.1118C74.0446 98.7709 72.7679 99.5513 71.8363 100.129C71.6983 100.216 71.5545 100.02 71.681 99.9155L76.0286 94.8975C76.3277 92.7989 73.6766 91.2611 72.5954 87.8098C70.1283 79.9416 62.75 73.9292 62.75 73.9292C62.75 73.9292 63.5954 97.7476 67.5462 106.963C71.6925 103.13 74.1596 100.546 75.1833 98.106V98.1118Z" fill="#E705FB"/>
<path d="M175.33 90.0999C181.845 90.3832 193.525 72.4963 193.755 72.1494C193.657 72.2535 191.984 73.9936 183.513 78.5723C174.766 83.2955 169.222 88.4985 169.222 88.4985C169.222 88.4985 168.751 89.8224 175.335 90.1057L175.33 90.0999Z" fill="#E705FB"/>
<path d="M148.832 93.2195C148.55 90.5255 138.958 92.9362 137.267 100.168C136.226 104.608 149.114 95.9136 148.832 93.2195Z" fill="#E705FB"/>
<path d="M129.242 77.8739C129.242 77.8739 128.178 72.7229 128.304 72.5379C128.425 72.3472 129.73 64.8027 129.73 64.8027C129.73 64.8027 125.607 72.0812 125.791 73.0872C125.981 74.0931 129.242 77.8739 129.242 77.8739Z" fill="#E705FB"/>
</g>
<defs>
<clipPath id="clip0_3394_146824">
<rect width="260" height="260" fill="white"/>
</clipPath>
</defs>
</svg>
